 <svg width="24" height="24" viewBox="0 0 24 24" fill="none" xmlns="http://www.w3.org/2000/svg">
      <path d="M9 19C4 20.5 4 16.5 2 16M16 22V19.5C16 18.7 15.6 18 15 17.5C18 17.2 21 15.5 21 10.5C20.9999 9.11991 20.5785 7.77328 19.8 6.666C20.0902 5.70952 20.0573 4.68574 19.705 3.75C19.705 3.75 18.6 3.45 16 5.1C13.895 4.52172 11.605 4.52172 9.5 5.1C6.9 3.45 5.8 3.75 5.8 3.75C5.44274 4.68382 5.40977 5.7054 5.705 6.66C4.92151 7.77102 4.49991 9.12159 4.5 10.5C4.5 15.5 7.5 17.2 10.5 17.5C9.9 18 9.5 18.7 9.5 19.5V22" stroke="#ffffff" stroke-width="2" stroke-linecap="round" stroke-linejoin="round"/>
    </svg>