<svg width="24" height="24" viewBox="0 0 24 24" fill="none" xmlns="http://www.w3.org/2000/svg">
      <path d="M16 8C17.0609 8 18.0783 8.42143 18.8284 9.17157C19.5786 9.92172 20 10.9391 20 12V20H17V12C17 11.4696 16.7893 10.9609 16.4142 10.5858C16.0391 10.2107 15.5304 10 15 10C14.4696 10 13.9609 10.2107 13.5858 10.5858C13.2107 10.9609 13 11.4696 13 12V20H10V12C10 10.9391 10.4214 9.92172 11.1716 9.17157C11.9217 8.42143 12.9391 8 14 8H16Z" stroke="#ffffff" stroke-width="2" stroke-linecap="round" stroke-linejoin="round"/>
      <path d="M6 9H3V20H6V9Z" stroke="#ffffff" stroke-width="2" stroke-linecap="round" stroke-linejoin="round"/>
      <circle cx="4.5" cy="4.5" r="2.5" stroke="#ffffff" stroke-width="2"/>
    </svg>